# xmcd
#
# Track frame offsets:
#	150
#	29767
#	59030
#	97117
#	114282
#	128705
#	160862
#	197517
#	220452
#
# Disc length: 3175 seconds
# Revision: 0
# Processed by: cddbd v1.5.2PL0 Copyright (c) Steve Scherf et al.
# Submitted via: dBpowerAMP V12.0
#
DISCID=840c6509
DTITLE=Stevie Wonder - Songs in the Key of Life, Disc 2
DYEAR=1976
DGENRE=R&B
TTITLE0=Isn't She Lovely
TTITLE1=Joy Inside My Tears
TTITLE2=Black Man
TTITLE3=Ngiculela-Es Una Histria-I Am Singing
TTITLE4=If It's Magic
TTITLE5=As
TTITLE6=Another Star
TTITLE7=All Day Sucker
TTITLE8=Easy Goin' Evening(My Mama's Call)
EXTD=
EXTT0=
EXTT1=
EXTT2=
EXTT3=
EXTT4=
EXTT5=
EXTT6=
EXTT7=
EXTT8=
PLAYORDER=
